{"title":"Tom Odell - Live at iTunes Festival 2013 720p HDRip x264 titler","uid":14872928,"size":849855424,"categoryP":"video","categoryS":"hd___movies","magnet":"?xt=urn:btih:6f0678a115b77f33efc1777ff072aa1e3e9c2efb&amp;dn=Tom+Odell+-+Live+at+iTunes+Festival+2013+720p+HDRip+x264+titler&amp;tr=udp%3A%2F%2Ftracker.leechers-paradise.org%3A6969&amp;tr=udp%3A%2F%2Fzer0day.ch%3A1337&amp;tr=udp%3A%2F%2Fopen.demonii.com%3A1337&amp;tr=udp%3A%2F%2Ftracker.coppersurfer.tk%3A6969&amp;tr=udp%3A%2F%2Fexodus.desync.com%3A6969","seeders":0,"leechers":1,"uploader":"movieZ.freak","files":2,"time":1465585035,"description":"SOURCE: Web-DL 1080p (2.5GB)\r\n\r\n\r\nTom Odell - Live at iTunes Festival (12.09.2013) -- Roundhouse, London, England\r\n\r\n \nhttps://en.wikipedia.org/wiki/Tom_Odell\r\n\r\n\r\n\r\nSCREENSHOTS:\r\n-------------------- \nhttps://someimage.com/03GU\r\n\r\n\r\n\r\nNOTE:\r\n----------\r\nDecent source for encoding.\r\n\r\n----------------------------------------------------------------------\r\n01. Grow Old With Me\r\n02. Can't Pretend\r\n03. Sirens\r\n04. Sense\r\n05. I Know\r\n06. Honky Tonk Women (The Rolling Stones cover)\r\n07. Another Love\r\n08. Hold Me\r\n09. Cruel\r\n----------------------------------------------------------------------\r\n\r\n*****************************************************\r\n\r\n- Duration: 40mn 45s\r\n\r\n- Nominal bit rate: 2339 Kbps\r\n\r\n- Res: 1280 x 720\r\n\r\n- AR: 16:9\r\n\r\n- FPS: 25.000 fps\r\n\r\n- Audio: AC3, 2 channels, 320Kbps\r\n\r\n*****************************************************\r\n\r\nGeneral\r\n------------\r\nFormat : Matroska\r\nFormat version : Version 4 / Version 2\r\nFile size : 790 MiB\r\nDuration : 40mn 45s\r\nOverall bit rate : 2710 Kbps\r\nEncoded date : UTC 2016-06-10 16:09:56\r\nWriting application : mkvmerge v9.2.0 ('Photograph') 64bit\r\nWriting library : libebml v1.3.3 + libmatroska v1.4.4\r\n\r\n\r\nVideo\r\n-----------\r\nFormat : AVC\r\nFormat/Info : Advanced Video Codec\r\nFormat profile :   \r\nFormat settings, CABAC : Yes\r\nFormat settings, ReFrames : 5 frames\r\nCodec ID : V_MPEG4/ISO/AVC\r\nDuration : 40mn 45s\r\nBit rate : 2339 Kbps\r\nWidth : 1280 pixels\r\nHeight : 720 pixels\r\nDisplay aspect ratio : 16:9\r\nFrame rate mode : Constant\r\nFrame rate : 25.000 fps\r\nColor space : YUV\r\nChroma subsampling : 4:2:0\r\nBit depth : 8 bits\r\nScan type : Progressive\r\nBits/(Pixel*Frame) : 0.102\r\nStream size : 681 MiB (86%)\r\nWriting library : x264 core 142\r\nEncoding settings : cabac=1 / ref=5\r\nDefault : Yes\r\nForced : No\r\n\r\nAudio\r\n-------\r\nFormat : AC-3\r\nFormat/Info : Audio Coding 3\r\nMode extension : CM (complete main)\r\nFormat settings, Endianness : Big\r\nCodec ID : A_AC3\r\nDuration : 40mn 45s\r\nBit rate mode : Constant\r\nBit rate : 320 Kbps\r\nChannel(s) : 2 channels\r\nChannel positions : Front: L R\r\nSampling rate : 48.0 KHz\r\nBit depth : 16 bits\r\nCompression mode : Lossy\r\nStream size : 93.3 MiB (12%)\r\nTitle : Stereo\r\nLanguage : English\r\nDefault : Yes\r\nForced : No","torrent":{"xt":"urn:btih:6f0678a115b77f33efc1777ff072aa1e3e9c2efb","amp;dn":"Tom+Odell+-+Live+at+iTunes+Festival+2013+720p+HDRip+x264+titler","amp;tr":["udp%3A%2F%2Ftracker.leechers-paradise.org%3A6969","udp%3A%2F%2Fzer0day.ch%3A1337","udp%3A%2F%2Fopen.demonii.com%3A1337","udp%3A%2F%2Ftracker.coppersurfer.tk%3A6969","udp%3A%2F%2Fexodus.desync.com%3A6969"],"infoHash":"6f0678a115b77f33efc1777ff072aa1e3e9c2efb","infoHashBuffer":{"type":"Buffer","data":[111,6,120,161,21,183,127,51,239,193,119,127,240,114,170,30,62,156,46,251]},"announce":[],"urlList":[]}}